<svg width="94" height="94" viewBox="0 0 94 94" fill="none" xmlns="http://www.w3.org/2000/svg">
<rect width="94" height="94" rx="47" fill="#D8DAFD"/>
<path d="M59.8592 54.0221C64.8614 60.1517 67.1649 65.1751 66.0018 67.4215C65.1098 69.126 59.5995 72.4561 55.5459 73.7317C52.2036 74.7815 47.8225 75.2331 44.2092 74.8831C39.8958 74.4655 35.526 72.919 31.7772 70.4807C28.6268 68.4262 27.9155 67.5795 27.9155 65.8976C27.9155 62.5223 31.6304 56.6072 37.9875 49.8567C41.6008 46.0299 46.6256 41.5371 47.1788 41.6613C48.2402 41.8984 56.6976 50.1389 59.8592 54.0221ZM39.3877 34.3351C36.0341 31.2985 32.8273 28.2507 29.6318 27.1783C27.9155 26.6025 27.7913 26.6364 26.3911 28.0926C23.094 31.5243 20.3501 37.0895 19.5823 41.9097C18.9726 45.7703 18.8935 46.854 19.1081 48.7392C19.7404 54.4398 21.0615 58.3795 23.6811 62.3869C24.7538 64.035 25.0474 64.3398 24.7313 63.5044C24.257 62.2627 24.6974 59.2713 25.804 56.2798C27.4186 51.8773 31.8901 43.5352 39.3877 34.3351ZM74.5721 41.5033C72.6638 32.4725 66.9503 26.7945 66.1486 26.7945C65.3243 26.7945 63.4161 27.5282 62.0837 28.3635C59.4527 30.0004 57.4541 31.9081 54.8232 34.3238C59.6108 40.3406 66.3632 50.0599 68.7005 57.1603C69.4683 59.497 69.7958 61.7999 69.5361 63.0642C69.3441 64.0237 69.3441 64.0237 69.6942 63.5834C70.3829 62.7142 71.9412 60.0502 72.5622 58.673C73.3978 56.8442 74.2559 54.135 74.6624 52.0467C75.148 49.5068 75.1028 44.0545 74.5721 41.5033ZM34.0468 22.9564C39.4328 22.6742 46.4336 26.8509 46.953 26.9525C47.032 26.9638 48.1273 26.4784 49.392 25.8575C56.6073 22.3468 60.006 22.9451 61.5191 23.0128C54.3038 18.5765 44.2769 17.3686 35.1082 21.6921C32.466 22.9451 32.3982 23.0354 34.0468 22.9564Z" fill="#3B44F6"/>
</svg>
