<svg width="36" height="36" viewBox="0 0 36 36" fill="none" xmlns="http://www.w3.org/2000/svg">
<rect width="36" height="36" rx="18" fill="white" fill-opacity="0.1"/>
<path d="M17.9974 12.869C15.158 12.869 12.8665 15.1606 12.8665 18C12.8665 20.8394 15.158 23.131 17.9974 23.131C20.8369 23.131 23.1284 20.8394 23.1284 18C23.1284 15.1606 20.8369 12.869 17.9974 12.869ZM17.9974 21.3348C16.1612 21.3348 14.6627 19.8362 14.6627 18C14.6627 16.1638 16.1612 14.6652 17.9974 14.6652C19.8337 14.6652 21.3322 16.1638 21.3322 18C21.3322 19.8362 19.8337 21.3348 17.9974 21.3348ZM23.3385 11.4631C22.6756 11.4631 22.1402 11.9984 22.1402 12.6614C22.1402 13.3243 22.6756 13.8597 23.3385 13.8597C24.0015 13.8597 24.5369 13.3268 24.5369 12.6614C24.5371 12.504 24.5062 12.3481 24.446 12.2026C24.3859 12.0571 24.2976 11.9249 24.1863 11.8136C24.075 11.7023 23.9428 11.614 23.7974 11.5539C23.6519 11.4937 23.496 11.4629 23.3385 11.4631ZM27.9992 18C27.9992 16.6191 28.0117 15.2506 27.9342 13.8722C27.8566 12.2711 27.4914 10.8502 26.3206 9.67938C25.1473 8.50609 23.7288 8.14334 22.1277 8.06579C20.7468 7.98824 19.3784 8.00074 17.9999 8.00074C16.619 8.00074 15.2506 7.98824 13.8721 8.06579C12.2711 8.14334 10.8501 8.50859 9.67932 9.67938C8.50602 10.8527 8.14328 12.2711 8.06573 13.8722C7.98817 15.2531 8.00068 16.6216 8.00068 18C8.00068 19.3784 7.98817 20.7494 8.06573 22.1278C8.14328 23.7289 8.50853 25.1498 9.67932 26.3206C10.8526 27.4939 12.2711 27.8567 13.8721 27.9342C15.2531 28.0118 16.6215 27.9993 17.9999 27.9993C19.3809 27.9993 20.7493 28.0118 22.1277 27.9342C23.7288 27.8567 25.1498 27.4914 26.3206 26.3206C27.4939 25.1473 27.8566 23.7289 27.9342 22.1278C28.0142 20.7494 27.9992 19.3809 27.9992 18ZM25.7977 23.899C25.6151 24.3543 25.3949 24.6945 25.0422 25.0448C24.6895 25.3975 24.3517 25.6176 23.8964 25.8003C22.5805 26.3231 19.4559 26.2055 17.9974 26.2055C16.539 26.2055 13.4118 26.3231 12.096 25.8028C11.6406 25.6201 11.3004 25.4 10.9502 25.0473C10.5974 24.6945 10.3773 24.3568 10.1947 23.9015C9.67431 22.5831 9.79189 19.4585 9.79189 18C9.79189 16.5415 9.67431 13.4144 10.1947 12.0985C10.3773 11.6432 10.5974 11.303 10.9502 10.9527C11.3029 10.6025 11.6406 10.3799 12.096 10.1972C13.4118 9.67688 16.539 9.79446 17.9974 9.79446C19.4559 9.79446 22.583 9.67688 23.8989 10.1972C24.3542 10.3799 24.6945 10.6 25.0447 10.9527C25.3974 11.3055 25.6176 11.6432 25.8002 12.0985C26.3206 13.4144 26.203 16.5415 26.203 18C26.203 19.4585 26.3206 22.5831 25.7977 23.899Z" fill="#A0A0A0"/>
</svg>
